{"asset":{"version":"2.0","generator":"babylon.js glTF exporter for Autodesk MAYA 2022.3 v20220210.4"},"scene":0,"scenes":[{"nodes":[0,1]}],"nodes":[{"mesh":0,"name":"vm"},{"mesh":1,"name":"vm_collider"}],"meshes":[{"primitives":[{"attributes":{"POSITION":1,"TANGENT":2,"NORMAL":3,"TEXCOORD_0":4},"indices":0,"material":0},{"attributes":{"POSITION":6,"TANGENT":7,"NORMAL":8,"TEXCOORD_0":9},"indices":5,"material":1}],"name":"vm"},{"primitives":[{"attributes":{"POSITION":11,"TANGENT":12,"NORMAL":13,"TEXCOORD_0":14},"indices":10,"material":0}],"name":"vm_collider"}],"accessors":[{"bufferView":0,"componentType":5123,"count":1074,"type":"SCALAR","name":"accessorIndices"},{"bufferView":1,"componentType":5126,"count":580,"max":[0.5526788,3.0,0.5526794],"min":[-1.05267882,0.0,-1.05267942],"type":"VEC3","name":"accessorPositions"},{"bufferView":2,"componentType":5126,"count":580,"type":"VEC4","name":"accessorTangents"},{"bufferView":1,"byteOffset":6960,"componentType":5126,"count":580,"type":"VEC3","name":"accessorNormals"},{"bufferView":3,"componentType":5126,"count":580,"type":"VEC2","name":"accessorUVs"},{"bufferView":0,"byteOffset":2148,"componentType":5123,"count":12,"type":"SCALAR","name":"accessorIndices"},{"bufferView":1,"byteOffset":13920,"componentType":5126,"count":8,"max":[0.48999998,2.88888884,0.484406739],"min":[-0.8275006,1.11111093,-0.8230945],"type":"VEC3","name":"accessorPositions"},{"bufferView":2,"byteOffset":9280,"componentType":5126,"count":8,"type":"VEC4","name":"accessorTangents"},{"bufferView":1,"byteOffset":14016,"componentType":5126,"count":8,"type":"VEC3","name":"accessorNormals"},{"bufferView":3,"byteOffset":4640,"componentType":5126,"count":8,"type":"VEC2","name":"accessorUVs"},{"bufferView":0,"byteOffset":2172,"componentType":5123,"count":84,"type":"SCALAR","name":"accessorIndices"},{"bufferView":1,"byteOffset":14112,"componentType":5126,"count":44,"max":[0.496178359,3.01344776,0.503905],"min":[-0.9698342,0.0,-0.962107539],"type":"VEC3","name":"accessorPositions"},{"bufferView":2,"byteOffset":9408,"componentType":5126,"count":44,"type":"VEC4","name":"accessorTangents"},{"bufferView":1,"byteOffset":14640,"componentType":5126,"count":44,"type":"VEC3","name":"accessorNormals"},{"bufferView":3,"byteOffset":4704,"componentType":5126,"count":44,"type":"VEC2","name":"accessorUVs"}],"bufferViews":[{"buffer":0,"byteLength":2340,"name":"bufferViewScalar"},{"buffer":0,"byteOffset":2340,"byteLength":15168,"byteStride":12,"name":"bufferViewFloatVec3"},{"buffer":0,"byteOffset":17508,"byteLength":10112,"byteStride":16,"name":"bufferViewFloatVec4"},{"buffer":0,"byteOffset":27620,"byteLength":5056,"byteStride":8,"name":"bufferViewFloatVec2"}],"buffers":[{"uri":"vendingmachine.bin","byteLength":32676}],"materials":[{"pbrMetallicRoughness":{"baseColorTexture":{"index":0},"metallicFactor":0.0,"roughnessFactor":0.450053632},"name":"m_vm"},{"pbrMetallicRoughness":{"baseColorTexture":{"index":0},"metallicFactor":0.0,"roughnessFactor":0.450053632},"alphaMode":"BLEND","name":"m_vm1"}],"textures":[{"sampler":0,"source":0,"name":"vm3.png"}],"images":[{"uri":"vm3.png"}],"samplers":[{"magFilter":9729,"minFilter":9987}]}